<svg xmlns="http://www.w3.org/2000/svg" version="1.1" xmlns:xlink="http://www.w3.org/1999/xlink" xmlns:svgjs="http://svgjs.dev/svgjs" width="1600" height="900" preserveAspectRatio="none" viewBox="0 0 1600 900"><g mask="url(&quot;#SvgjsMask1132&quot;)" fill="none"><rect width="1600" height="900" x="0" y="0" fill="rgba(21, 67, 96, 1)"></rect><path d="M0,675.32C123.75,702.78,244.095,614.006,347.285,540.386C446.937,469.29,542.072,380.854,577.133,263.568C610.56,151.748,565.565,35.237,531.675,-76.443C502.186,-173.619,448.827,-255.843,393.644,-341.094C329.19,-440.667,296.359,-588.601,181.356,-617.641C65.57,-646.878,-26.136,-512.713,-139.698,-475.769C-248.506,-440.371,-377.484,-475.197,-468.726,-406.153C-566.355,-332.275,-649.746,-215.207,-645.733,-92.842C-641.751,28.569,-522.97,108.791,-448.687,204.908C-391.478,278.933,-325.171,337.801,-260.599,405.499C-172.512,497.851,-124.594,647.673,0,675.32" fill="#0e2c3e"></path><path d="M1600 1404.599C1692.798 1397.628 1766.936 1331.135 1840.192 1273.746 1907.472 1221.038 1963.4180000000001 1159.405 2006.905 1085.827 2054.665 1005.02 2112.087 921.058 2103.91 827.549 2095.6059999999998 732.598 2024.7350000000001 658.0740000000001 1963.137 585.3399999999999 1900.907 511.859 1833.067 444.487 1745.529 404.375 1648.237 359.794 1540.08 316.15 1436.789 344.15599999999995 1332.971 372.30499999999995 1260.87 464.543 1199.026 552.554 1141.629 634.236 1088.967 728.1759999999999 1097.021 827.683 1104.613 921.485 1198.851 979.785 1240.439 1064.206 1280.291 1145.105 1269.95 1249.664 1335.44 1311.663 1404.721 1377.25 1504.866 1411.745 1600 1404.599" fill="#1c5a82"></path></g><defs><mask id="SvgjsMask1132"><rect width="1600" height="900" fill="#ffffff"></rect></mask></defs></svg>