<svg xmlns="http://www.w3.org/2000/svg" version="1.1" xmlns:xlink="http://www.w3.org/1999/xlink" xmlns:svgjs="http://svgjs.dev/svgjs" width="1600" height="900" preserveAspectRatio="none" viewBox="0 0 1600 900"><g mask="url(&quot;#SvgjsMask1202&quot;)" fill="none"><rect width="1600" height="900" x="0" y="0" fill="rgba(16, 59, 86, 0.98)"></rect><path d="M0,633.638C124.737,623.065,258.858,634.07,360.783,561.39C461.169,489.808,501.983,364.106,541.684,247.379C578.166,140.117,597.48,28.549,580.09,-83.404C562.833,-194.504,520.054,-301.947,443.559,-384.346C368.488,-465.211,264.258,-508.366,157.994,-538.078C52.815,-567.487,-54.76,-570.966,-162.622,-553.838C-283.082,-534.71,-417.128,-522.723,-500.331,-433.539C-584.15,-343.694,-593.644,-208.876,-598.972,-86.119C-603.918,27.833,-559.997,131.934,-529.644,241.88C-492.999,374.614,-513.059,544.189,-402.353,626.074C-292.278,707.492,-136.425,645.202,0,633.638" fill="rgba(12, 45, 65, 0.98)"></path><path d="M1600 1425.3780000000002C1709.48 1455.769 1833.951 1473.591 1933.905 1419.566 2035.425 1364.694 2097.146 1252.118 2126.86 1140.609 2154.303 1037.622 2122.246 931.331 2091.174 829.38 2063.964 740.101 2010.893 666.545 1958.78 589.116 1899.071 500.401 1862.5529999999999 383.34400000000005 1763.632 342.722 1663.334 301.534 1550.417 346.35699999999997 1447.007 378.95399999999995 1345.342 411.001 1229.478 439.379 1172.067 529.194 1115.76 617.281 1175.762 733.563 1154.857 835.998 1131.984 948.076 993.624 1051.242 1044.629 1153.629 1096.263 1257.28 1263.181 1211.353 1367.1970000000001 1262.249 1454.07 1304.757 1506.809 1399.508 1600 1425.3780000000002" fill="rgba(20, 73, 107, 0.98)"></path></g><defs><mask id="SvgjsMask1202"><rect width="1600" height="900" fill="#ffffff"></rect></mask></defs></svg>